# xmcd CD database file
#
# Track frame offsets:
#	150
#	22862
#	41130
#	64730
#	86215
#	97435
#	117810
#	140877
#	162817
#	180702
#	199555
#	220162
#
# Disc length: 3146 seconds
#
# Revision: 0
# Processed by: cddbd v1.5.2PL0 Copyright (c) Steve Scherf et al.
# Submitted via: CDex 1.51
#
DISCID=ae0c480c
DTITLE=Kenny G - Dying Young
DYEAR=1997
DGENRE=Jazz
TTITLE0=Songbird
TTITLE1=Theme from Dying Young
TTITLE2=Silhouette
TTITLE3=All in One Night
TTITLE4=Miracles
TTITLE5=Jasmine Flowers
TTITLE6=Waiting for You
TTITLE7=By The Time This Night Is Over
TTITLE8=Midnight Motion
TTITLE9=The Joy of Life
TTITLE10=Summer Song
TTITLE11=Greensleeves
EXTD=YEAR: 1997
EXTT0=
EXTT1=
EXTT2=
EXTT3=
EXTT4=
EXTT5=
EXTT6=
EXTT7=
EXTT8=
EXTT9=
EXTT10=
EXTT11=
PLAYORDER=
